<svg width="23" height="22" viewBox="0 0 23 22" fill="none" xmlns="http://www.w3.org/2000/svg">
<circle cx="11.7322" cy="10.9635" r="10.944" fill="#FF9F38"/>
<path fill-rule="evenodd" clip-rule="evenodd" d="M16.7206 9.16706C16.9391 7.72973 15.8278 6.9569 14.3094 6.44121L14.8021 4.49369L13.5996 4.19881L13.1194 6.09491C12.8101 6.01836 12.4927 5.94706 12.1758 5.87588L12.1556 5.87135L12.6393 3.96292L11.4368 3.66736L10.9441 5.6142L10.8915 5.60235L10.8915 5.60234C10.6479 5.54748 10.4083 5.49348 10.1758 5.4359L10.1772 5.42973L8.51825 5.02171L8.19814 6.2876C8.19814 6.2876 9.09096 6.48921 9.07217 6.50156C9.55929 6.62156 9.64697 6.93907 9.63236 7.19142L9.07148 9.40982C9.10488 9.41805 9.14802 9.43039 9.19674 9.44891L9.06939 9.41805L8.28304 12.5259C8.22319 12.6712 8.07219 12.89 7.7312 12.807C7.74373 12.8242 6.85717 12.5924 6.85717 12.5924L6.2601 13.9488L7.82584 14.3335C7.99395 14.3751 8.16019 14.4179 8.32471 14.4602L8.32485 14.4602C8.44496 14.4911 8.56415 14.5218 8.68248 14.5516L8.18492 16.521L9.38671 16.8159L9.8794 14.8684C10.2079 14.9555 10.5266 15.0364 10.8383 15.1132L10.347 17.0525L11.5495 17.3474L12.0471 15.382C14.0985 15.7647 15.6406 15.6104 16.2899 13.7822C16.8132 12.3105 16.2641 11.4609 15.1848 10.9075C15.9712 10.7292 16.5627 10.2197 16.7206 9.16706ZM13.9715 12.9649C13.6313 14.3155 11.4862 13.7572 10.5043 13.5016L10.5042 13.5016C10.4158 13.4786 10.3368 13.458 10.2694 13.4415L10.9305 10.8322C11.0128 10.8525 11.1133 10.8747 11.2271 10.9L11.2271 10.9C12.2427 11.1248 14.3213 11.5849 13.9715 12.9649ZM11.4309 9.68864C12.2491 9.9039 14.0331 10.3733 14.3437 9.1459C14.6614 7.89054 12.9271 7.51247 12.08 7.32781C11.9845 7.30699 11.9003 7.28863 11.8316 7.27175L11.2331 9.63758C11.2898 9.65151 11.3563 9.66902 11.4309 9.68864Z" fill="white"/>
</svg>
