<svg width="18" height="14" viewBox="0 0 18 14" fill="none" xmlns="http://www.w3.org/2000/svg">
<path fill-rule="evenodd" clip-rule="evenodd" d="M13.2365 13.8454C13.4683 14.005 13.7671 14.0449 14.0335 13.9469C14.2999 13.8482 14.4958 13.627 14.5548 13.3589C15.1805 10.5001 16.6982 3.2642 17.2678 0.663704C17.311 0.467704 17.239 0.264004 17.0806 0.133104C16.9222 0.00220375 16.7026 -0.0355963 16.5067 0.0351037C13.4878 1.1215 4.1904 4.513 0.390237 5.8801C0.149037 5.9669 -0.00792346 6.1923 -3.46231e-06 6.4394C0.00863654 6.6872 0.179997 6.9021 0.426957 6.9742C2.1312 7.4698 4.36824 8.1593 4.36824 8.1593C4.36824 8.1593 5.41368 11.2288 5.95872 12.7898C6.02712 12.9858 6.1848 13.1398 6.39288 13.193C6.60024 13.2455 6.822 13.1902 6.9768 13.0481C7.85232 12.2445 9.20592 11.002 9.20592 11.002C9.20592 11.002 11.7778 12.8353 13.2365 13.8454ZM5.30928 7.7715L6.51816 11.6481L6.78672 9.1932C6.78672 9.1932 11.4574 5.0975 14.1199 2.763C14.1977 2.6944 14.2085 2.5796 14.1437 2.4991C14.0796 2.4186 13.9615 2.3997 13.873 2.4543C10.787 4.3702 5.30928 7.7715 5.30928 7.7715Z" fill="white"/>
</svg>
